<?xml version="1.0" encoding="UTF-8" standalone="no"?>
<!-- Created with Inkscape (http://www.inkscape.org/) -->

<svg
   width="294.28284mm"
   height="99.311478mm"
   viewBox="0 0 294.28284 99.311478"
   version="1.1"
   id="svg1"
   xml:space="preserve"
   inkscape:version="1.3 (0e150ed6c4, 2023-07-21)"
   sodipodi:docname="seddit-artboard-pathtraced.svg"
   xmlns:inkscape="http://www.inkscape.org/namespaces/inkscape"
   xmlns:sodipodi="http://sodipodi.sourceforge.net/DTD/sodipodi-0.dtd"
   xmlns="http://www.w3.org/2000/svg"
   xmlns:svg="http://www.w3.org/2000/svg"><sodipodi:namedview
     id="namedview1"
     pagecolor="#ffffff"
     bordercolor="#000000"
     borderopacity="0.25"
     inkscape:showpageshadow="2"
     inkscape:pageopacity="0.0"
     inkscape:pagecheckerboard="0"
     inkscape:deskcolor="#d1d1d1"
     inkscape:document-units="mm"
     inkscape:zoom="0.50709219"
     inkscape:cx="-475.25875"
     inkscape:cy="245.51749"
     inkscape:window-width="3840"
     inkscape:window-height="2123"
     inkscape:window-x="0"
     inkscape:window-y="0"
     inkscape:window-maximized="1"
     inkscape:current-layer="layer1" /><defs
     id="defs1" /><g
     inkscape:label="Layer 1"
     inkscape:groupmode="layer"
     id="layer1"
     transform="translate(-73.024999,-267.22916)"><g
       id="g9"
       inkscape:export-filename="nc-news/src/assets/logo-split.svg"
       inkscape:export-xdpi="300"
       inkscape:export-ydpi="300"><path
         id="path1-7"
         style="fill:#e14500;fill-opacity:1;stroke-width:0.96871"
         d="m 166.77716,267.24397 c -0.91876,0.0779 -1.80589,0.46516 -2.39675,1.19786 -0.58169,0.72135 -0.63515,0.93406 -0.6842,2.71457 -0.0535,1.93179 -0.0537,1.93165 -1.70687,3.33468 -7.13084,6.05205 -25.48256,13.4756 -47.68443,19.28822 -4.32454,1.13221 -4.32452,1.1319 -16.072921,1.22215 -6.461618,0.0496 -12.178006,0.18205 -12.702584,0.29352 -1.185114,0.25186 -2.465872,1.42153 -3.045809,2.78278 -0.440918,1.03493 -0.441114,1.03542 -3.155363,1.09141 -2.037097,0.042 -2.950816,0.1915 -3.663342,0.59996 -1.123527,0.64408 -2.276942,2.03176 -2.524394,3.03754 -0.09728,0.39535 -0.142092,5.0775 -0.09922,10.40402 0.0678,8.42541 0.145265,9.82217 0.595829,10.74146 1.038555,2.11894 2.760007,2.85939 6.503996,2.79828 2.131066,-0.0348 2.131061,-0.0347 2.652034,1.02836 0.608909,1.24229 1.151654,1.77643 2.291333,2.25619 0.820341,0.34533 -1.169153,0.42646 3.005076,16.04869 2.31509,8.66427 4.336568,16.13329 4.492232,16.59796 0.378582,1.13007 1.425529,2.08283 2.950725,2.68459 0.690506,0.27249 1.715978,0.55268 2.27893,0.6227 1.765737,0.21968 14.192268,0.65057 15.318968,0.53123 1.60006,-0.16946 3.48386,-1.03303 4.38681,-2.01073 0.672,-0.72761 0.82466,-1.08763 0.95188,-2.24637 0.19326,-1.76 -0.29289,-3.06829 -1.52704,-4.11086 -0.84584,-0.71456 -1.35131,-0.98187 -3.87005,-1.51412 -4.14128,-0.87512 -3.48953,-0.63278 -6.15871,-1.89296 -1.62994,-0.76954 -2.12533,-2.78356 -2.69375,-4.09841 -7.787245,-23.60629 4.66818,-10.19097 -0.87328,-19.03264 -0.65625,-1.04708 1.74465,-1.24726 4.68513,-1.25352 2.94054,-0.006 2.94038,-0.006 12.09901,2.47014 21.51973,5.81993 34.86168,11.18681 42.24806,16.99379 1.93215,1.51906 1.93156,1.51884 1.91203,2.9652 -0.0254,1.88056 0.44972,3.09317 1.48777,3.79925 1.11534,0.75869 2.43286,0.79733 3.7331,0.10903 1.69447,-0.897 1.76047,-1.2746 1.70222,-9.75651 -0.29211,-42.49598 -0.65338,-77.21725 -0.80822,-77.67743 -0.38246,-1.13662 -1.49475,-1.83014 -2.70836,-1.99574 l -5.1e-4,-5.2e-4 c -0.30341,-0.0414 -0.61307,-0.0497 -0.91933,-0.0238 z m 10.72958,29.30622 c -1.23336,0.0298 -1.33518,0.0849 -1.47123,0.79169 -0.0804,0.41756 -0.089,7.38249 -0.0196,15.47761 0.12613,14.7184 0.1256,14.71845 1.05679,14.78359 2.80836,0.19647 4.7368,-0.44883 6.45438,-2.15956 1.85692,-1.8495 2.00302,-2.87114 1.92495,-13.45396 -0.0372,-5.04001 -0.18694,-9.65721 -0.33331,-10.26035 -0.57251,-2.3591 -2.47128,-4.14323 -4.95732,-4.84984 -0.8287,-0.23554 -1.72274,-0.35171 -2.65462,-0.32917 z"
         sodipodi:nodetypes="ssccsssssssssscsssccsssssscsccsssscsccsssscsssssss"
         inkscape:export-filename="logo-split.svg"
         inkscape:export-xdpi="500"
         inkscape:export-ydpi="500" /><path
         d="m 158.46627,323.60259 q -1.83313,0 -3.1316,-1.22208 -1.29846,-1.29847 -1.37484,-3.1316 l -1.14571,-30.24664 q -0.0764,-1.75675 1.14571,-3.05522 1.22208,-1.29846 2.97883,-1.29846 h 4.12454 q 1.75675,0 2.97884,1.29846 1.22209,1.29847 1.14571,3.05522 l -1.14571,30.24664 q -0.0764,1.83313 -1.37485,3.1316 -1.29846,1.22208 -3.13159,1.22208 z m 1.83313,6.11043 q 1.75675,0 2.97884,1.29847 1.29846,1.29847 1.29846,3.05522 v 1.98589 q 0,1.75675 -1.29846,3.05521 -1.22209,1.29847 -2.97884,1.29847 h -2.59693 q -1.75675,0 -3.05522,-1.29847 -1.22209,-1.29846 -1.22209,-3.05521 v -1.98589 q 0,-1.75675 1.22209,-3.05522 1.29847,-1.29847 3.05522,-1.29847 z"
         id="text1-5-2"
         style="font-size:76.3804px;font-family:'Rounded Mplus 1c Bold';-inkscape-font-specification:'Rounded Mplus 1c Bold, Normal';fill:#ffffff;stroke-width:6.36501"
         aria-label="!" /><path
         d="m 209.90502,317.87569 q -5.20545,-1.14024 -7.43636,-3.12327 -2.18133,-1.98302 -2.18133,-5.15587 0,-3.56945 2.62751,-5.55248 2.67709,-2.0326 7.88254,-2.0326 3.272,0 6.49442,0.59491 1.09066,0.1983 1.73515,1.09066 0.69406,0.84279 0.69406,1.98303 0,0.94194 -0.74364,1.53685 -0.74363,0.54533 -1.68557,0.29745 -2.77624,-0.69406 -5.84994,-0.69406 -4.46181,0 -4.46181,2.47879 0,1.18981 0.84279,1.98303 0.84279,0.79321 2.87539,1.23939 5.7012,1.14024 7.78338,3.07369 2.13176,1.93345 2.13176,5.65163 0,3.56945 -2.67709,5.55248 -2.67709,1.98303 -7.78338,1.98303 -3.32158,0 -6.79187,-0.79321 -1.09067,-0.24788 -1.78473,-1.14024 -0.69406,-0.94194 -0.69406,-2.13176 0,-0.94194 0.74364,-1.4377 0.79321,-0.49575 1.68557,-0.24787 3.22242,0.89236 6.09781,0.89236 4.51139,0 4.51139,-2.67709 0,-1.28897 -0.89236,-2.0326 -0.84279,-0.74364 -3.12327,-1.33855 z m 28.95219,-1.98302 q -7.08933,0 -7.08933,4.36266 0,1.58642 0.89237,2.57793 0.94193,0.99152 2.37963,0.99152 2.82582,0 4.56096,-1.73515 1.73515,-1.78473 1.73515,-4.85842 v -0.89236 q 0,-0.44618 -0.44618,-0.44618 z m -5.60205,12.88968 q -3.37115,0 -5.60206,-2.18133 -2.18133,-2.23091 -2.18133,-5.75078 0,-4.31309 3.272,-6.69272 3.32157,-2.37964 10.11344,-2.37964 h 2.0326 q 0.44618,0 0.44618,-0.44618 v -0.3966 q 0,-2.28049 -1.09066,-3.17285 -1.09067,-0.94194 -3.86691,-0.94194 -2.87539,0 -7.03975,1.04109 -0.89236,0.24788 -1.63599,-0.29745 -0.74364,-0.59491 -0.74364,-1.53685 0,-1.14024 0.69406,-2.0326 0.69406,-0.94194 1.78473,-1.14024 3.76775,-0.84279 7.08932,-0.84279 6.34569,0 8.87405,2.28048 2.52836,2.28048 2.52836,7.98169 v 13.18714 q 0,1.14024 -0.84278,1.98302 -0.79322,0.84279 -1.93346,0.84279 h -0.54533 q -1.18982,0 -2.0326,-0.79321 -0.84279,-0.84279 -0.89237,-2.0326 v -0.69406 q 0,-0.0496 -0.0496,-0.0496 -0.0992,0 -0.0992,0.0496 -3.02412,4.01563 -8.27914,4.01563 z m 25.5811,-0.49576 q -1.14024,0 -1.98303,-0.84279 -0.84279,-0.84278 -0.84279,-1.98302 v -20.12774 q 0,-1.14024 0.84279,-1.98303 0.84279,-0.84278 1.98303,-0.84278 h 1.28896 q 1.14025,0 1.98303,0.84278 0.84279,0.84279 0.84279,1.98303 v 20.12774 q 0,1.14024 -0.84279,1.98302 -0.84278,0.84279 -1.98303,0.84279 z m 0,-31.23269 q -1.14024,0 -1.98303,-0.84279 -0.84279,-0.84278 -0.84279,-1.98302 v -0.29746 q 0,-1.14024 0.84279,-1.98303 0.84279,-0.84278 1.98303,-0.84278 h 1.28896 q 1.14025,0 1.98303,0.84278 0.84279,0.84279 0.84279,1.98303 v 0.29746 q 0,1.14024 -0.84279,1.98302 -0.84278,0.84279 -1.98303,0.84279 z m 23.20139,9.91514 q -5.7012,0 -5.7012,8.42787 0,4.21393 1.53684,6.34569 1.53685,2.08218 4.16436,2.08218 2.33006,0 4.01563,-1.53685 1.68558,-1.53685 1.68558,-3.51987 v -6.7423 q 0,-1.98303 -1.68558,-3.51987 -1.68557,-1.53685 -4.01563,-1.53685 z m -1.98303,21.81331 q -4.41223,0 -7.3372,-3.56945 -2.92497,-3.61903 -2.92497,-9.81599 0,-6.39527 2.77624,-9.86557 2.82582,-3.51987 7.48593,-3.51987 4.21394,0 7.43636,3.07369 0.0496,0.0496 0.0992,0.0496 0.0496,0 0.0496,-0.0496 v -11.15453 q 0,-1.14024 0.84278,-1.98303 0.84279,-0.84278 1.98303,-0.84278 h 0.99151 q 1.14024,0 1.98303,0.84278 0.84279,0.84279 0.84279,1.98303 v 31.53015 q 0,1.14024 -0.84279,1.98302 -0.84279,0.84279 -1.98303,0.84279 h -0.54533 q -1.18982,0 -2.0326,-0.79321 -0.79321,-0.84279 -0.84279,-2.0326 l -0.0496,-0.34703 q 0,-0.0496 -0.0496,-0.0496 -0.0496,0 -0.0992,0.0496 -3.272,3.6686 -7.78339,3.6686 z m 32.0755,-21.81331 q -5.70121,0 -5.70121,8.42787 0,4.21393 1.53685,6.34569 1.53685,2.08218 4.16436,2.08218 2.33006,0 4.01563,-1.53685 1.68557,-1.53685 1.68557,-3.51987 v -6.7423 q 0,-1.98303 -1.68557,-3.51987 -1.68557,-1.53685 -4.01563,-1.53685 z m -1.98303,21.81331 q -4.41224,0 -7.3372,-3.56945 -2.92497,-3.61903 -2.92497,-9.81599 0,-6.39527 2.77624,-9.86557 2.82582,-3.51987 7.48593,-3.51987 4.21394,0 7.43636,3.07369 0.0496,0.0496 0.0991,0.0496 0.0496,0 0.0496,-0.0496 v -11.15453 q 0,-1.14024 0.84279,-1.98303 0.84279,-0.84278 1.98303,-0.84278 h 0.99151 q 1.14024,0 1.98303,0.84278 0.84279,0.84279 0.84279,1.98303 v 31.53015 q 0,1.14024 -0.84279,1.98302 -0.84279,0.84279 -1.98303,0.84279 h -0.54533 q -1.18982,0 -2.0326,-0.79321 -0.79322,-0.84279 -0.84279,-2.0326 l -0.0496,-0.34703 q 0,-0.0496 -0.0496,-0.0496 -0.0496,0 -0.0992,0.0496 -3.272,3.6686 -7.78339,3.6686 z m 25.63065,-0.49576 q -1.14024,0 -1.98303,-0.84279 -0.84279,-0.84278 -0.84279,-1.98302 v -20.12774 q 0,-1.14024 0.84279,-1.98303 0.84279,-0.84278 1.98303,-0.84278 h 1.28897 q 1.14024,0 1.98303,0.84278 0.84278,0.84279 0.84278,1.98303 v 20.12774 q 0,1.14024 -0.84278,1.98302 -0.84279,0.84279 -1.98303,0.84279 z m 0,-31.23269 q -1.14024,0 -1.98303,-0.84279 -0.84279,-0.84278 -0.84279,-1.98302 v -0.29746 q 0,-1.14024 0.84279,-1.98303 0.84279,-0.84278 1.98303,-0.84278 h 1.28897 q 1.14024,0 1.98303,0.84278 0.84278,0.84279 0.84278,1.98303 v 0.29746 q 0,1.14024 -0.84278,1.98302 -0.84279,0.84279 -1.98303,0.84279 z m 13.58372,11.25368 q -0.99152,0 -1.68558,-0.69406 -0.69406,-0.74363 -0.69406,-1.73515 0,-0.99151 0.69406,-1.68557 0.69406,-0.69406 1.68558,-0.69406 h 2.37963 q 0.44618,0 0.44618,-0.44618 v -6.14739 q 0,-1.14024 0.79321,-1.98302 0.84279,-0.84279 1.98303,-0.84279 h 0.99151 q 1.14024,0 1.98303,0.84279 0.84279,0.84278 0.84279,1.98302 v 6.14739 q 0,0.44618 0.44618,0.44618 h 5.65163 q 0.99151,0 1.68557,0.69406 0.74364,0.69406 0.74364,1.68557 0,0.99152 -0.74364,1.73515 -0.69406,0.69406 -1.68557,0.69406 h -5.65163 q -0.44618,0 -0.44618,0.39661 v 10.01429 q 0,3.22242 0.69406,4.16436 0.69406,0.94194 2.87539,0.94194 1.18982,0 1.78472,-0.0991 0.99152,-0.0992 1.73515,0.44618 0.74364,0.54533 0.74364,1.48727 0,1.09066 -0.74364,1.98303 -0.69406,0.84278 -1.73515,0.94193 -2.18133,0.19831 -3.27199,0.19831 -4.80885,0 -6.7423,-2.03261 -1.93345,-2.08218 -1.93345,-7.38678 v -10.65877 q 0,-0.39661 -0.44618,-0.39661 z"
         id="text1-1"
         style="font-size:49.5757px;font-family:'Rounded Mplus 1c Bold';-inkscape-font-specification:'Rounded Mplus 1c Bold, Normal';fill:#ffffff;stroke-width:4.1313"
         aria-label="saiddit" /></g></g></svg>
