<?xml version="1.0" encoding="UTF-8" standalone="no"?>
<!-- Created with Inkscape (http://www.inkscape.org/) -->

<svg
   width="147.43806mm"
   height="99.311485mm"
   viewBox="0 0 147.43806 99.311485"
   version="1.1"
   id="svg1"
   xml:space="preserve"
   inkscape:version="1.3 (0e150ed6c4, 2023-07-21)"
   sodipodi:docname="seddit-artboard.svg"
   xmlns:inkscape="http://www.inkscape.org/namespaces/inkscape"
   xmlns:sodipodi="http://sodipodi.sourceforge.net/DTD/sodipodi-0.dtd"
   xmlns="http://www.w3.org/2000/svg"
   xmlns:svg="http://www.w3.org/2000/svg"><sodipodi:namedview
     id="namedview1"
     pagecolor="#ffffff"
     bordercolor="#000000"
     borderopacity="0.25"
     inkscape:showpageshadow="2"
     inkscape:pageopacity="0.0"
     inkscape:pagecheckerboard="0"
     inkscape:deskcolor="#d1d1d1"
     inkscape:document-units="mm"
     inkscape:zoom="1.4342733"
     inkscape:cx="178.4876"
     inkscape:cy="-67.281459"
     inkscape:window-width="3840"
     inkscape:window-height="2123"
     inkscape:window-x="0"
     inkscape:window-y="0"
     inkscape:window-maximized="1"
     inkscape:current-layer="layer1" /><defs
     id="defs1" /><g
     inkscape:label="Layer 1"
     inkscape:groupmode="layer"
     id="layer1"
     transform="translate(-71.253271,-59.215688)"><g
       id="g10"><path
         id="path1"
         style="fill:#e14500;fill-opacity:1;stroke-width:0.96871"
         d="m 165.00543,59.230493 c -0.91876,0.07786 -1.80589,0.465155 -2.39675,1.19786 -0.58169,0.721351 -0.63515,0.934059 -0.6842,2.714563 -0.0535,1.931795 -0.0537,1.931655 -1.70687,3.33468 -7.13084,6.052053 -25.48256,13.475602 -47.68443,19.288228 -4.32454,1.132202 -4.32452,1.131894 -16.072918,1.222148 -6.461618,0.04964 -12.178006,0.182046 -12.702584,0.293522 -1.185114,0.251858 -2.465872,1.421522 -3.045809,2.782776 -0.440918,1.034932 -0.441114,1.035423 -3.155363,1.091406 -2.037097,0.04202 -2.950816,0.191506 -3.663342,0.599964 -1.123527,0.644076 -2.276942,2.031764 -2.524394,3.03754 -0.09728,0.395348 -0.142092,5.077498 -0.09922,10.40402 0.0678,8.42541 0.145265,9.82217 0.595829,10.74146 1.038555,2.11894 2.760007,2.85939 6.503996,2.79828 2.131066,-0.0348 2.131061,-0.0347 2.652034,1.02836 0.608909,1.24229 1.151654,1.77643 2.291333,2.25619 0.820341,0.34533 -1.169153,0.42646 3.005076,16.04869 2.31509,8.66427 4.336568,16.13329 4.492232,16.59796 0.378582,1.13007 1.425529,2.08283 2.950725,2.68459 0.690506,0.27249 1.715978,0.55268 2.27893,0.6227 1.765737,0.21968 14.192265,0.65057 15.318965,0.53123 1.60006,-0.16946 3.48386,-1.03303 4.38681,-2.01073 0.672,-0.72761 0.82466,-1.08763 0.95188,-2.24637 0.19326,-1.76 -0.29289,-3.06829 -1.52704,-4.11086 -0.84584,-0.71456 -1.35131,-0.98187 -3.87005,-1.51412 -4.14128,-0.87512 -3.48953,-0.63278 -6.15871,-1.89296 -1.62994,-0.76954 -2.12533,-2.78356 -2.69375,-4.09841 -7.787242,-23.60629 4.66818,-10.19097 -0.87328,-19.03264 -0.65625,-1.04708 1.74465,-1.24726 4.68513,-1.25352 2.94054,-0.006 2.94038,-0.006 12.09901,2.47014 21.51973,5.81993 34.86168,11.18681 42.24806,16.99379 1.93215,1.51906 1.93156,1.51884 1.91203,2.9652 -0.0254,1.88056 0.44972,3.09317 1.48777,3.79925 1.11534,0.75869 2.43286,0.79733 3.7331,0.10903 1.69447,-0.897 1.76047,-1.2746 1.70222,-9.75651 -0.29211,-42.495976 -0.65338,-77.217246 -0.80822,-77.677425 -0.38246,-1.136623 -1.49475,-1.830146 -2.70836,-1.995744 l -5.1e-4,-5.17e-4 c -0.30341,-0.0414 -0.61307,-0.04973 -0.91933,-0.02377 z m 10.72958,29.306222 c -1.23336,0.02982 -1.33518,0.08495 -1.47123,0.791683 -0.0804,0.417564 -0.089,7.382493 -0.0196,15.477612 0.12613,14.7184 0.1256,14.71845 1.05679,14.78359 2.80836,0.19647 4.7368,-0.44883 6.45438,-2.15956 1.85692,-1.8495 2.00302,-2.87114 1.92495,-13.45396 -0.0372,-5.040011 -0.18694,-9.657207 -0.33331,-10.260353 -0.57251,-2.359099 -2.47128,-4.143231 -4.95732,-4.849833 -0.8287,-0.235542 -1.72274,-0.351711 -2.65462,-0.329179 z"
         sodipodi:nodetypes="ssccsssssssssscsssccsssssscsccsssscsccsssscsssssss"
         inkscape:export-filename="logo-combined.svg"
         inkscape:export-xdpi="500"
         inkscape:export-ydpi="500" /><text
         xml:space="preserve"
         style="font-style:normal;font-variant:normal;font-weight:normal;font-stretch:normal;font-size:23.3282px;font-family:'Rounded Mplus 1c Bold';-inkscape-font-specification:'Rounded Mplus 1c Bold, Normal';font-variant-ligatures:normal;font-variant-caps:normal;font-variant-numeric:normal;font-variant-east-asian:normal;fill:#ffffff;fill-opacity:1;stroke-width:1.94401"
         x="86.121361"
         y="111.93745"
         id="text1-2"><tspan
           id="tspan1-6"
           style="font-style:normal;font-variant:normal;font-weight:normal;font-stretch:normal;font-size:23.3282px;font-family:'Rounded Mplus 1c Bold';-inkscape-font-specification:'Rounded Mplus 1c Bold, Normal';font-variant-ligatures:normal;font-variant-caps:normal;font-variant-numeric:normal;font-variant-east-asian:normal;fill:#ffffff;fill-opacity:1;stroke-width:1.94401"
           x="86.121361"
           y="111.93745"
           sodipodi:role="line">seddit</tspan></text><text
         xml:space="preserve"
         style="font-style:normal;font-variant:normal;font-weight:normal;font-stretch:normal;font-size:122.986px;font-family:'Rounded Mplus 1c Bold';-inkscape-font-specification:'Rounded Mplus 1c Bold, Normal';font-variant-ligatures:normal;font-variant-caps:normal;font-variant-numeric:normal;font-variant-east-asian:normal;fill:#e14500;fill-opacity:1;stroke-width:10.2488"
         x="185.2319"
         y="149.12383"
         id="text1-5"><tspan
           sodipodi:role="line"
           id="tspan1-0"
           style="font-style:normal;font-variant:normal;font-weight:normal;font-stretch:normal;font-size:122.986px;font-family:'Rounded Mplus 1c Bold';-inkscape-font-specification:'Rounded Mplus 1c Bold, Normal';font-variant-ligatures:normal;font-variant-caps:normal;font-variant-numeric:normal;font-variant-east-asian:normal;fill:#e14500;fill-opacity:1;stroke-width:10.2488"
           x="185.2319"
           y="149.12383">!</tspan></text></g></g></svg>
