<?xml version="1.0" encoding="UTF-8" standalone="no"?>
<!-- Created with Inkscape (http://www.inkscape.org/) -->

<svg
   width="147.43806mm"
   height="99.311485mm"
   viewBox="0 0 147.43806 99.311485"
   version="1.1"
   id="svg1"
   xml:space="preserve"
   inkscape:version="1.3 (0e150ed6c4, 2023-07-21)"
   sodipodi:docname="seddit-artboard-pathtraced.svg"
   xmlns:inkscape="http://www.inkscape.org/namespaces/inkscape"
   xmlns:sodipodi="http://sodipodi.sourceforge.net/DTD/sodipodi-0.dtd"
   xmlns="http://www.w3.org/2000/svg"
   xmlns:svg="http://www.w3.org/2000/svg"><sodipodi:namedview
     id="namedview1"
     pagecolor="#ffffff"
     bordercolor="#000000"
     borderopacity="0.25"
     inkscape:showpageshadow="2"
     inkscape:pageopacity="0.0"
     inkscape:pagecheckerboard="0"
     inkscape:deskcolor="#d1d1d1"
     inkscape:document-units="mm"
     inkscape:zoom="0.50709219"
     inkscape:cx="-475.25875"
     inkscape:cy="245.51749"
     inkscape:window-width="3840"
     inkscape:window-height="2123"
     inkscape:window-x="0"
     inkscape:window-y="0"
     inkscape:window-maximized="1"
     inkscape:current-layer="layer1" /><defs
     id="defs1" /><g
     inkscape:label="Layer 1"
     inkscape:groupmode="layer"
     id="layer1"
     transform="translate(-71.253271,-59.215688)"><path
       id="path1"
       style="fill:#e14500;fill-opacity:1;stroke-width:0.96871"
       d="m 165.00543,59.230493 c -0.91876,0.07786 -1.80589,0.465155 -2.39675,1.19786 -0.58169,0.721351 -0.63515,0.934059 -0.6842,2.714563 -0.0535,1.931795 -0.0537,1.931655 -1.70687,3.33468 -7.13084,6.052053 -25.48256,13.475602 -47.68443,19.288228 -4.32454,1.132202 -4.32452,1.131894 -16.072918,1.222148 -6.461618,0.04964 -12.178006,0.182046 -12.702584,0.293522 -1.185114,0.251858 -2.465872,1.421522 -3.045809,2.782776 -0.440918,1.034932 -0.441114,1.035423 -3.155363,1.091406 -2.037097,0.04202 -2.950816,0.191506 -3.663342,0.599964 -1.123527,0.644076 -2.276942,2.031764 -2.524394,3.03754 -0.09728,0.395348 -0.142092,5.077498 -0.09922,10.40402 0.0678,8.42541 0.145265,9.82217 0.595829,10.74146 1.038555,2.11894 2.760007,2.85939 6.503996,2.79828 2.131066,-0.0348 2.131061,-0.0347 2.652034,1.02836 0.608909,1.24229 1.151654,1.77643 2.291333,2.25619 0.820341,0.34533 -1.169153,0.42646 3.005076,16.04869 2.31509,8.66427 4.336568,16.13329 4.492232,16.59796 0.378582,1.13007 1.425529,2.08283 2.950725,2.68459 0.690506,0.27249 1.715978,0.55268 2.27893,0.6227 1.765737,0.21968 14.192265,0.65057 15.318965,0.53123 1.60006,-0.16946 3.48386,-1.03303 4.38681,-2.01073 0.672,-0.72761 0.82466,-1.08763 0.95188,-2.24637 0.19326,-1.76 -0.29289,-3.06829 -1.52704,-4.11086 -0.84584,-0.71456 -1.35131,-0.98187 -3.87005,-1.51412 -4.14128,-0.87512 -3.48953,-0.63278 -6.15871,-1.89296 -1.62994,-0.76954 -2.12533,-2.78356 -2.69375,-4.09841 -7.787242,-23.60629 4.66818,-10.19097 -0.87328,-19.03264 -0.65625,-1.04708 1.74465,-1.24726 4.68513,-1.25352 2.94054,-0.006 2.94038,-0.006 12.09901,2.47014 21.51973,5.81993 34.86168,11.18681 42.24806,16.99379 1.93215,1.51906 1.93156,1.51884 1.91203,2.9652 -0.0254,1.88056 0.44972,3.09317 1.48777,3.79925 1.11534,0.75869 2.43286,0.79733 3.7331,0.10903 1.69447,-0.897 1.76047,-1.2746 1.70222,-9.75651 -0.29211,-42.495976 -0.65338,-77.217246 -0.80822,-77.677425 -0.38246,-1.136623 -1.49475,-1.830146 -2.70836,-1.995744 l -5.1e-4,-5.17e-4 c -0.30341,-0.0414 -0.61307,-0.04973 -0.91933,-0.02377 z m 10.72958,29.306222 c -1.23336,0.02982 -1.33518,0.08495 -1.47123,0.791683 -0.0804,0.417564 -0.089,7.382493 -0.0196,15.477612 0.12613,14.7184 0.1256,14.71845 1.05679,14.78359 2.80836,0.19647 4.7368,-0.44883 6.45438,-2.15956 1.85692,-1.8495 2.00302,-2.87114 1.92495,-13.45396 -0.0372,-5.040011 -0.18694,-9.657207 -0.33331,-10.260353 -0.57251,-2.359099 -2.47128,-4.143231 -4.95732,-4.849833 -0.8287,-0.235542 -1.72274,-0.351711 -2.65462,-0.329179 z"
       sodipodi:nodetypes="ssccsssssssssscsssccsssssscsccsssscsccsssscsssssss"
       inkscape:export-filename="logo-combined.svg"
       inkscape:export-xdpi="500"
       inkscape:export-ydpi="500" /><path
       d="m 86.606736,108.64098 q -2.449461,-0.53655 -3.49923,-1.46968 -1.026441,-0.93312 -1.026441,-2.42613 0,-1.67963 1.236395,-2.61276 1.259723,-0.95645 3.709184,-0.95645 1.539661,0 3.055994,0.27993 0.51322,0.0933 0.816487,0.51322 0.326594,0.39658 0.326594,0.93313 0,0.44324 -0.349923,0.72318 -0.349923,0.25661 -0.793158,0.13997 -1.30638,-0.3266 -2.752728,-0.3266 -2.099538,0 -2.099538,1.16641 0,0.55988 0.39658,0.93313 0.396579,0.37325 1.353035,0.5832 2.682743,0.53655 3.662527,1.44635 1.003113,0.9098 1.003113,2.65942 0,1.67963 -1.259723,2.61276 -1.259723,0.93312 -3.662527,0.93312 -1.562989,0 -3.195963,-0.37325 -0.513221,-0.11664 -0.839816,-0.53655 -0.326594,-0.44323 -0.326594,-1.00311 0,-0.44323 0.349923,-0.67652 0.373251,-0.23328 0.793158,-0.11664 1.516333,0.41991 2.869369,0.41991 2.122866,0 2.122866,-1.25972 0,-0.60654 -0.419908,-0.95646 -0.396579,-0.34992 -1.469676,-0.62986 z m 13.623664,-0.93313 q -3.335937,0 -3.335937,2.05288 0,0.74651 0.419908,1.21307 0.443236,0.46656 1.119753,0.46656 1.329708,0 2.146196,-0.81648 0.81649,-0.83982 0.81649,-2.28617 v -0.4199 q 0,-0.20996 -0.20996,-0.20996 z m -2.636091,6.06533 q -1.586317,0 -2.636086,-1.02644 -1.026441,-1.04977 -1.026441,-2.70607 0,-2.02955 1.539661,-3.14931 1.562989,-1.11975 4.758957,-1.11975 h 0.95645 q 0.20996,0 0.20996,-0.20995 v -0.18663 q 0,-1.0731 -0.51322,-1.493 -0.51323,-0.44324 -1.819604,-0.44324 -1.353036,0 -3.312605,0.48989 -0.419907,0.11664 -0.76983,-0.13997 -0.349923,-0.27993 -0.349923,-0.72317 0,-0.53655 0.326595,-0.95646 0.326594,-0.44323 0.839815,-0.53654 1.772943,-0.39658 3.335932,-0.39658 2.98601,0 4.17575,1.07309 1.18974,1.0731 1.18974,3.75584 v 6.2053 q 0,0.53655 -0.39658,0.93313 -0.37325,0.39658 -0.9098,0.39658 h -0.25661 q -0.55988,0 -0.95646,-0.37325 -0.39658,-0.39658 -0.41991,-0.95646 v -0.32659 q 0,-0.0233 -0.0233,-0.0233 -0.0466,0 -0.0466,0.0233 -1.42302,1.88958 -3.895811,1.88958 z m 12.037371,-0.23328 q -0.53655,0 -0.93313,-0.39658 -0.39658,-0.39658 -0.39658,-0.93313 v -9.47124 q 0,-0.53655 0.39658,-0.93313 0.39658,-0.39658 0.93313,-0.39658 h 0.60653 q 0.53655,0 0.93313,0.39658 0.39658,0.39658 0.39658,0.93313 v 9.47124 q 0,0.53655 -0.39658,0.93313 -0.39658,0.39658 -0.93313,0.39658 z m 0,-14.696764 q -0.53655,0 -0.93313,-0.396579 -0.39658,-0.39658 -0.39658,-0.933128 V 97.37346 q 0,-0.536549 0.39658,-0.933128 0.39658,-0.39658 0.93313,-0.39658 h 0.60653 q 0.53655,0 0.93313,0.39658 0.39658,0.396579 0.39658,0.933128 v 0.139969 q 0,0.536548 -0.39658,0.933128 -0.39658,0.396579 -0.93313,0.396579 z m 10.91758,4.665644 q -2.68274,0 -2.68274,3.96579 0,1.9829 0.72317,2.98601 0.72318,0.97978 1.95957,0.97978 1.09643,0 1.88958,-0.72317 0.79316,-0.72317 0.79316,-1.6563 v -3.17264 q 0,-0.93313 -0.79316,-1.6563 -0.79315,-0.72317 -1.88958,-0.72317 z m -0.93313,10.2644 q -2.07621,0 -3.45257,-1.67963 -1.37636,-1.70296 -1.37636,-4.61898 0,-3.00934 1.30637,-4.64231 1.32971,-1.6563 3.52256,-1.6563 1.9829,0 3.49923,1.44634 0.0233,0.0233 0.0467,0.0233 0.0233,0 0.0233,-0.0233 v -5.24884 q 0,-0.536549 0.39658,-0.933128 0.39658,-0.39658 0.93312,-0.39658 h 0.46657 q 0.53655,0 0.93313,0.39658 0.39658,0.396579 0.39658,0.933128 v 14.83673 q 0,0.53655 -0.39658,0.93313 -0.39658,0.39658 -0.93313,0.39658 h -0.25661 q -0.55988,0 -0.95646,-0.37325 -0.37325,-0.39658 -0.39658,-0.95646 l -0.0233,-0.16329 q 0,-0.0233 -0.0233,-0.0233 -0.0233,0 -0.0467,0.0233 -1.53966,1.72628 -3.66253,1.72628 z m 15.09336,-10.2644 q -2.68275,0 -2.68275,3.96579 0,1.9829 0.72318,2.98601 0.72317,0.97978 1.95957,0.97978 1.09642,0 1.88958,-0.72317 0.79316,-0.72317 0.79316,-1.6563 v -3.17264 q 0,-0.93313 -0.79316,-1.6563 -0.79316,-0.72317 -1.88958,-0.72317 z m -0.93313,10.2644 q -2.07621,0 -3.45258,-1.67963 -1.37636,-1.70296 -1.37636,-4.61898 0,-3.00934 1.30638,-4.64231 1.32971,-1.6563 3.52256,-1.6563 1.98289,0 3.49923,1.44634 0.0233,0.0233 0.0466,0.0233 0.0233,0 0.0233,-0.0233 v -5.24884 q 0,-0.536549 0.39658,-0.933128 0.39658,-0.39658 0.93313,-0.39658 h 0.46656 q 0.53655,0 0.93313,0.39658 0.39658,0.396579 0.39658,0.933128 v 14.83673 q 0,0.53655 -0.39658,0.93313 -0.39658,0.39658 -0.93313,0.39658 h -0.25661 q -0.55987,0 -0.95645,-0.37325 -0.37325,-0.39658 -0.39658,-0.95646 l -0.0233,-0.16329 q 0,-0.0233 -0.0233,-0.0233 -0.0233,0 -0.0467,0.0233 -1.53966,1.72628 -3.66252,1.72628 z m 12.06068,-0.23328 q -0.53654,0 -0.93312,-0.39658 -0.39658,-0.39658 -0.39658,-0.93313 v -9.47124 q 0,-0.53655 0.39658,-0.93313 0.39658,-0.39658 0.93312,-0.39658 h 0.60654 q 0.53655,0 0.93313,0.39658 0.39658,0.39658 0.39658,0.93313 v 9.47124 q 0,0.53655 -0.39658,0.93313 -0.39658,0.39658 -0.93313,0.39658 z m 0,-14.696764 q -0.53654,0 -0.93312,-0.396579 -0.39658,-0.39658 -0.39658,-0.933128 V 97.37346 q 0,-0.536549 0.39658,-0.933128 0.39658,-0.39658 0.93312,-0.39658 h 0.60654 q 0.53655,0 0.93313,0.39658 0.39658,0.396579 0.39658,0.933128 v 0.139969 q 0,0.536548 -0.39658,0.933128 -0.39658,0.396579 -0.93313,0.396579 z m 6.39192,5.295504 q -0.46657,0 -0.79316,-0.3266 -0.3266,-0.34992 -0.3266,-0.81648 0,-0.46657 0.3266,-0.79316 0.32659,-0.3266 0.79316,-0.3266 h 1.11975 q 0.20996,0 0.20996,-0.20995 v -2.892698 q 0,-0.536549 0.37325,-0.933128 0.39658,-0.39658 0.93312,-0.39658 h 0.46657 q 0.53655,0 0.93313,0.39658 0.39658,0.396579 0.39658,0.933128 v 2.892698 q 0,0.20995 0.20995,0.20995 h 2.65941 q 0.46657,0 0.79316,0.3266 0.34993,0.32659 0.34993,0.79316 0,0.46656 -0.34993,0.81648 -0.32659,0.3266 -0.79316,0.3266 h -2.65941 q -0.20995,0 -0.20995,0.18662 v 4.7123 q 0,1.51633 0.32659,1.95957 0.3266,0.44323 1.35304,0.44323 0.55987,0 0.83981,-0.0466 0.46657,-0.0467 0.81649,0.20995 0.34992,0.25661 0.34992,0.69985 0,0.51322 -0.34992,0.93313 -0.3266,0.39657 -0.81649,0.44323 -1.02644,0.0933 -1.53966,0.0933 -2.26284,0 -3.17263,-0.95645 -0.9098,-0.97979 -0.9098,-3.4759 v -5.01557 q 0,-0.18662 -0.20996,-0.18662 z"
       id="text1-2-5"
       style="font-size:23.3282px;font-family:'Rounded Mplus 1c Bold';-inkscape-font-specification:'Rounded Mplus 1c Bold, Normal';fill:#ffffff;stroke-width:1.94401"
       aria-label="saiddit" /><path
       d="m 207.86133,122.06691 q -2.95167,0 -5.04243,-1.96778 -2.09076,-2.09076 -2.21375,-5.04243 l -1.84479,-48.702453 q -0.12298,-2.828678 1.84479,-4.91944 1.96778,-2.090762 4.79646,-2.090762 h 6.64124 q 2.82868,0 4.79646,2.090762 1.96777,2.090762 1.84479,4.91944 l -1.84479,48.702453 q -0.12299,2.95167 -2.21375,5.04243 -2.09076,1.96778 -5.04243,1.96778 z m 2.95166,9.83888 q 2.82868,0 4.79646,2.09076 2.09076,2.09076 2.09076,4.91944 v 3.19763 q 0,2.82868 -2.09076,4.91944 -1.96778,2.09077 -4.79646,2.09077 h -4.18152 q -2.82868,0 -4.91944,-2.09077 -1.96778,-2.09076 -1.96778,-4.91944 v -3.19763 q 0,-2.82868 1.96778,-4.91944 2.09076,-2.09076 4.91944,-2.09076 z"
       id="text1-5"
       style="font-size:122.986px;font-family:'Rounded Mplus 1c Bold';-inkscape-font-specification:'Rounded Mplus 1c Bold, Normal';fill:#e14500;stroke-width:10.2488"
       aria-label="!" /></g></svg>
